<svg version="1.1" id="Layer_1" xmlns="http://www.w3.org/2000/svg" xmlns:xlink="http://www.w3.org/1999/xlink" x="0px" y="0px"
	 width="100%" viewBox="0 0 1536 1024" enable-background="new 0 0 1536 1024" xml:space="preserve">
<path fill="#FEFEFE" opacity="1.000000" stroke="none" 
	d="
M814.000000,1025.000000 
	C542.666687,1025.000000 271.833344,1025.000000 1.000000,1025.000000 
	C1.000000,683.666687 1.000000,342.333344 1.000000,1.000000 
	C513.000000,1.000000 1025.000000,1.000000 1537.000000,1.000000 
	C1537.000000,342.333344 1537.000000,683.666687 1537.000000,1025.000000 
	C1296.166626,1025.000000 1055.333374,1025.000000 814.000000,1025.000000 
M836.499634,409.815216 
	C843.143127,409.604614 849.854370,409.923462 856.417175,409.082855 
	C875.222656,406.674194 887.835632,391.384735 886.931396,372.724670 
	C886.134033,356.269073 872.056213,343.264130 853.486572,342.750824 
	C835.668152,342.258240 817.827515,342.587738 799.996948,342.500946 
	C797.346863,342.488068 794.668640,342.366821 792.053894,341.966156 
	C777.394531,339.719879 768.479553,326.457306 772.133118,312.464478 
	C774.835327,302.115295 784.215454,295.057739 796.638977,294.907135 
	C819.631897,294.628357 842.629700,294.742126 865.625427,294.708191 
	C877.915649,294.690063 890.205811,294.704987 902.652832,294.704987 
	C902.652832,291.109039 902.652832,288.047455 902.652832,284.615692 
	C887.415833,284.615692 872.440918,284.572449 857.466431,284.626007 
	C835.975098,284.702881 814.453491,284.179535 793.001404,285.155487 
	C771.380737,286.139130 757.539185,305.226135 761.890808,326.270630 
	C765.068176,341.636383 779.230103,352.146820 797.081482,352.221344 
	C814.079224,352.292297 831.077698,352.185547 848.075500,352.243652 
	C851.050964,352.253815 854.060425,352.480499 856.993347,352.971039 
	C867.965454,354.806244 875.816772,363.326019 876.843384,374.297607 
	C877.683411,383.275635 871.294434,393.386993 861.814270,396.858368 
	C857.540161,398.423401 852.766479,399.304077 848.214050,399.325165 
	C794.055725,399.576416 739.893494,399.968079 685.738953,399.515106 
	C664.473633,399.337280 648.010010,388.880219 638.175293,369.954590 
	C619.031860,333.115936 645.902527,290.609467 687.824341,290.672729 
	C710.320557,290.706665 732.817261,290.614563 755.312988,290.475647 
	C756.581726,290.467804 758.081238,289.792480 759.065735,288.950989 
	C761.952087,286.484009 764.632629,283.776062 767.544617,281.019745 
	C766.891602,280.903717 766.279053,280.699219 765.666748,280.699860 
	C738.836792,280.727570 711.998352,280.376343 685.179504,280.944458 
	C664.235046,281.388184 646.708923,289.865112 634.332275,307.132721 
	C618.958252,328.582458 617.378296,351.739410 629.411438,374.908783 
	C641.302551,397.804504 661.369141,409.453644 687.017090,409.696106 
	C736.507324,410.164001 786.005127,409.822571 836.499634,409.815216 
M481.499969,711.745300 
	C467.339600,711.758667 453.167175,711.442566 439.025208,711.959351 
	C433.889618,712.147034 428.382294,713.454651 423.828918,715.784302 
	C415.889709,719.846252 413.172546,727.468079 414.032867,736.044250 
	C414.813019,743.820984 419.130371,749.447876 426.715515,751.744934 
	C430.790253,752.978882 435.176971,753.569702 439.445801,753.699951 
	C450.427460,754.035034 461.436890,753.633179 472.405701,754.151184 
	C479.282043,754.475891 484.105865,759.427979 485.020020,765.594604 
	C485.949493,771.864685 482.372467,778.314392 476.023926,780.650208 
	C472.991241,781.765991 469.548370,782.158203 466.284882,782.188477 
	C451.126038,782.329346 435.964966,782.226135 420.804688,782.215210 
	C402.816925,782.202271 384.812195,782.677063 366.846283,782.045593 
	C349.623962,781.440369 336.017120,766.573914 335.932770,749.600769 
	C335.848267,732.600037 349.355225,717.799011 366.603027,716.903687 
	C379.393280,716.239624 392.253357,716.147034 405.047150,716.666504 
	C410.986572,716.907837 414.200317,714.234131 417.573975,710.077148 
	C400.989624,710.077148 384.830872,710.002991 368.673859,710.138672 
	C365.378418,710.166321 362.002167,710.650146 358.812256,711.490051 
	C341.250549,716.113586 328.844391,732.329529 329.442230,749.613708 
	C330.132782,769.579224 342.749847,785.337830 362.048767,787.887451 
	C374.505493,789.533020 387.290314,788.852783 399.929749,788.923096 
	C422.752869,789.050110 445.578033,789.072571 468.400665,788.904602 
	C478.081909,788.833435 486.022156,785.042175 490.078125,775.732788 
	C493.492523,767.895752 492.377258,760.386841 486.494232,753.986206 
	C481.783295,748.860779 475.488007,747.356018 468.825165,747.260010 
	C457.167816,747.091919 445.497101,747.364014 433.853455,746.906067 
	C426.105316,746.601440 421.034973,741.175659 420.567413,733.946655 
	C420.131805,727.211792 425.624176,720.292725 432.688538,719.004395 
	C435.774170,718.441772 438.950928,718.147522 442.087891,718.135498 
	C461.894897,718.059509 481.702393,718.096985 501.667084,718.096985 
	C501.667084,715.905212 501.667084,713.987610 501.667084,711.746765 
	C495.134094,711.746765 488.816833,711.746765 481.499969,711.745300 
M838.583740,516.203918 
	C846.768921,512.439331 850.758789,504.933563 848.885620,496.823761 
	C847.373962,490.279358 840.982178,486.063812 832.280090,485.977051 
	C825.448364,485.908966 818.613770,486.032593 811.784546,485.882294 
	C809.500061,485.832031 807.111572,485.524689 804.976501,484.760071 
	C801.197754,483.406891 798.388611,480.244171 799.081604,476.464539 
	C799.625610,473.497833 802.085449,470.170319 804.663757,468.497314 
	C807.044006,466.952850 810.710205,467.059784 813.816833,467.023254 
	C826.095825,466.878845 838.377502,466.963959 850.655090,466.963959 
	C851.278503,464.492737 851.758423,462.590393 852.374146,460.149567 
	C843.171448,460.149567 834.383972,460.048920 825.600037,460.182922 
	C819.119385,460.281799 812.569397,460.169342 806.183228,461.081696 
	C797.473877,462.325897 792.217102,468.321564 791.983154,475.952606 
	C791.700256,485.184937 798.992920,491.807007 809.801819,491.971893 
	C817.132385,492.083740 824.467651,491.912354 831.797485,492.047485 
	C837.447571,492.151642 841.404663,495.263123 842.018921,499.727478 
	C842.698853,504.669342 839.346680,509.264191 833.773560,510.584778 
	C831.539612,511.114136 829.157227,511.166534 826.841370,511.176270 
	C814.217163,511.229370 801.592651,511.201538 788.804993,511.201538 
	C788.156067,513.411194 787.559692,515.441711 786.817566,517.968567 
	C796.944397,517.968567 806.736084,518.150574 816.517212,517.907776 
	C823.637634,517.731079 830.744019,516.993652 838.583740,516.203918 
M991.891418,468.756195 
	C991.891418,466.958069 991.891418,465.159912 991.891418,463.192688 
	C989.427063,463.192688 987.351501,463.192688 985.069702,463.192688 
	C985.069702,466.809998 985.069641,470.131775 985.069641,473.453552 
	C985.069641,476.656738 985.069702,479.859924 985.069702,483.488800 
	C974.898499,476.298492 964.300049,476.887909 957.493469,484.513306 
	C950.844971,491.961609 951.093506,504.200653 958.006409,511.899933 
	C961.611572,515.915100 966.281738,517.820068 971.409180,517.120422 
	C976.178833,516.469543 980.784607,514.617920 985.414062,513.308716 
	C985.457458,513.681885 985.639282,515.244690 985.810242,516.713867 
	C987.921021,516.713867 989.698914,516.713867 991.893188,516.713867 
	C991.893188,500.901855 991.893188,485.298920 991.891418,468.756195 
M1057.522949,773.047546 
	C1053.719238,773.047546 1049.915405,773.047546 1045.771362,773.047546 
	C1045.400757,774.732910 1045.073853,776.219849 1044.673218,778.042053 
	C1056.312134,778.042053 1067.453979,778.080627 1078.594971,777.999329 
	C1080.217529,777.987427 1081.881836,777.549683 1083.447998,777.057556 
	C1090.263428,774.916016 1093.852661,769.669006 1093.022583,763.228943 
	C1092.287354,757.526001 1087.566284,753.802002 1080.365967,753.593018 
	C1074.708618,753.428894 1069.037842,753.727661 1063.380249,753.567688 
	C1057.409668,753.398926 1053.862793,750.397949 1054.038940,746.055786 
	C1054.205811,741.941956 1057.724731,739.246155 1063.408203,739.041443 
	C1067.068604,738.909668 1070.735718,738.941650 1074.399780,738.933655 
	C1081.046143,738.919189 1087.692505,738.929565 1094.518555,738.929565 
	C1094.975952,737.137085 1095.356201,735.647339 1095.792603,733.937500 
	C1084.382080,733.937500 1073.405273,733.894165 1062.429688,733.980713 
	C1060.632812,733.994873 1058.786987,734.406067 1057.056152,734.935608 
	C1052.093750,736.453613 1049.001099,740.455994 1048.642578,745.548035 
	C1048.261841,750.955872 1050.446655,754.773743 1055.726929,756.898865 
	C1057.963135,757.798889 1060.540771,758.115173 1062.979370,758.193787 
	C1068.469604,758.370972 1073.981812,758.010681 1079.462158,758.301636 
	C1083.295166,758.505066 1087.007568,759.943726 1087.197754,764.517395 
	C1087.379272,768.883423 1084.670166,771.586975 1080.455566,772.581299 
	C1079.016846,772.920715 1077.491577,772.996094 1076.004272,773.009155 
	C1070.175171,773.060547 1064.345337,773.038879 1057.522949,773.047546 
M488.323273,467.731049 
	C478.021149,472.601654 473.222107,480.965668 473.556671,492.116882 
	C473.891815,503.288055 480.537476,512.787109 490.362671,515.785706 
	C501.615021,519.219910 512.248291,518.316223 521.298523,509.155975 
	C519.568298,507.669769 518.083862,506.394745 516.609497,505.128296 
	C506.650970,513.063293 493.958893,513.171021 486.249023,505.435883 
	C479.441254,498.605743 478.261475,486.230408 484.661926,479.097137 
	C487.573029,475.852722 492.077240,473.507477 496.306519,472.091675 
	C504.012421,469.512054 510.805511,472.684631 516.862061,477.787781 
	C518.436462,476.132996 519.748047,474.754517 521.200989,473.227356 
	C511.433014,464.413727 500.755585,462.938599 488.323273,467.731049 
M653.621643,510.846100 
	C662.653320,519.900879 675.579773,519.862732 684.163757,510.558014 
	C682.998352,509.294342 681.819946,508.016479 680.666687,506.765991 
	C674.075684,511.808838 668.750916,512.787842 662.876343,510.176666 
	C658.586121,508.269714 656.515015,504.859772 655.707397,499.882324 
	C666.169800,499.882324 676.083984,499.882324 685.965576,499.882324 
	C686.712402,487.276581 681.404419,480.185944 670.393066,478.681976 
	C659.876099,477.245544 651.209961,483.325165 649.275330,493.804749 
	C648.174377,499.768219 649.339111,505.392120 653.621643,510.846100 
M1032.141479,479.460052 
	C1022.684692,483.844940 1018.463684,491.545532 1020.257446,501.140808 
	C1022.082336,510.902832 1028.441162,516.597717 1038.346191,517.340881 
	C1047.883057,518.056396 1055.595093,513.151978 1058.572632,504.478088 
	C1061.568970,495.749786 1058.348877,486.231812 1050.638916,481.276489 
	C1045.084595,477.706635 1039.080444,477.516876 1032.141479,479.460052 
M553.967163,479.289886 
	C542.208130,476.826569 533.061584,480.255219 529.042725,488.632874 
	C524.297241,498.525299 528.495850,511.360626 537.868896,515.614502 
	C547.988342,520.207092 560.941101,516.136292 565.120422,507.049988 
	C570.135376,496.146881 565.739563,484.596527 553.967163,479.289886 
M915.933167,506.061432 
	C915.258423,497.040405 914.583618,488.019409 913.919678,479.143250 
	C911.924255,479.143250 910.037781,479.143250 908.112732,479.143250 
	C908.112732,486.509003 908.112549,493.505096 908.113159,500.501160 
	C908.113159,501.001007 908.103699,501.501465 908.124329,502.000580 
	C908.536133,511.973541 914.024780,517.636719 923.965210,517.050293 
	C928.393311,516.789124 932.701172,514.489441 936.946228,513.151978 
	C936.989136,513.737183 937.102539,515.283203 937.210144,516.750366 
	C939.400269,516.750366 941.187805,516.750366 943.112000,516.750366 
	C943.112000,504.116730 943.112000,491.681458 943.112000,479.042664 
	C941.020264,479.042664 939.097107,479.042664 936.779358,479.042664 
	C936.779358,480.963623 936.829346,482.763702 936.770264,484.560150 
	C936.573547,490.539246 936.652344,496.550690 936.017700,502.484741 
	C935.505066,507.278503 932.231995,510.135986 927.482483,511.009186 
	C922.950806,511.842377 918.826965,511.308990 915.933167,506.061432 
M576.168335,492.510132 
	C576.168335,500.601044 576.168335,508.691956 576.168335,516.679565 
	C578.795715,516.679565 580.724365,516.679565 582.923279,516.679565 
	C582.923279,509.937866 582.856384,503.469238 582.940674,497.002594 
	C583.039795,489.400116 587.978699,484.238464 594.838379,484.402893 
	C602.091980,484.576782 605.160156,488.180115 605.215637,496.708374 
	C605.258728,503.326630 605.224243,509.945374 605.224243,516.774292 
	C607.627197,516.774292 609.546753,516.774292 611.840393,516.774292 
	C611.840393,508.481781 612.302856,500.328003 611.710205,492.251648 
	C611.119019,484.195709 606.042725,478.729553 598.464050,478.569794 
	C593.312317,478.461182 588.113037,480.610443 582.786804,481.782593 
	C582.784668,481.767914 582.581421,480.393616 582.395630,479.137543 
	C580.149353,479.137543 578.261719,479.137543 576.174500,479.137543 
	C576.174500,483.523773 576.174500,487.520325 576.168335,492.510132 
M723.197205,480.062531 
	C715.451721,477.120270 708.349426,477.940704 702.163818,484.166199 
	C701.882019,482.110168 701.668762,480.553741 701.435486,478.851379 
	C699.411926,478.946075 697.794434,479.021759 695.973999,479.106934 
	C695.973999,491.806946 695.973999,504.227905 695.973999,516.651001 
	C698.091675,516.651001 700.005676,516.651001 702.115295,516.651001 
	C702.115295,510.252014 702.110657,504.105347 702.116394,497.958710 
	C702.124207,489.560760 706.599243,484.371429 713.972839,484.197998 
	C720.735901,484.039001 724.654419,488.852783 724.735168,497.550934 
	C724.793823,503.866974 724.746582,510.183960 724.746582,516.614929 
	C726.946289,516.614929 728.831970,516.614929 730.995850,516.614929 
	C730.995850,508.346863 731.205078,500.369232 730.920288,492.409241 
	C730.738647,487.331787 728.301147,483.184906 723.197205,480.062531 
M1199.334106,743.467529 
	C1199.334106,745.867676 1199.334106,748.267822 1199.334106,750.955322 
	C1190.719727,745.713806 1182.943726,746.364136 1177.745239,752.400269 
	C1173.041626,757.861694 1173.043335,767.260315 1177.748901,772.667725 
	C1183.075073,778.788330 1191.007935,779.278687 1198.262817,774.563660 
	C1200.214478,775.810852 1201.800049,776.824036 1204.253174,778.391663 
	C1204.253174,763.139160 1204.253174,749.384033 1204.253174,735.433350 
	C1202.607666,735.433350 1201.193726,735.433350 1199.326538,735.433350 
	C1199.326538,737.948364 1199.326538,740.246155 1199.334106,743.467529 
M804.617126,745.179199 
	C804.123596,746.043945 803.593140,746.889954 803.142273,747.776428 
	C798.581482,756.744568 801.195496,768.474365 808.846619,773.778625 
	C818.642090,780.569336 832.300415,778.206848 837.385925,770.965027 
	C836.379700,769.779724 835.351807,768.569031 834.388428,767.434204 
	C825.061218,774.482300 817.303955,774.480225 810.647339,767.852966 
	C805.443420,762.672119 804.853943,753.557190 809.348633,747.775330 
	C814.947266,740.573303 823.717896,740.181946 834.083557,746.606140 
	C835.250671,745.656433 836.395996,744.724426 837.533691,743.798645 
	C828.391296,734.306335 814.133606,734.788025 804.617126,745.179199 
M750.808105,492.494629 
	C750.808105,489.855194 750.808105,487.215759 750.808105,484.187927 
	C754.769348,484.187927 758.362305,484.187927 762.238403,484.187927 
	C762.119751,482.210358 762.025635,480.641418 761.917847,478.845490 
	C758.117493,478.845490 754.660278,478.845490 750.776001,478.845490 
	C750.776001,475.847107 750.776001,473.090393 750.776001,470.273682 
	C748.444153,470.273682 746.545166,470.273682 744.332764,470.273682 
	C744.332764,473.145752 744.332764,475.760071 744.332764,478.532410 
	C742.256042,478.713654 740.476562,478.868927 738.453003,479.045532 
	C738.453003,480.759735 738.453003,482.355560 738.453003,483.951294 
	C740.485718,484.185242 742.385254,484.403870 744.259277,484.619537 
	C744.259277,488.485413 744.259033,491.950836 744.259277,495.416229 
	C744.259460,498.905853 744.097534,502.405029 744.301331,505.882751 
	C744.561096,510.316193 745.441040,514.680908 750.334595,516.360291 
	C755.206909,518.032471 760.031982,518.193726 764.355835,514.294556 
	C763.585449,512.708130 762.900513,511.297668 762.236389,509.929932 
	C753.123779,512.970886 750.916809,511.344574 750.913147,501.964539 
	C750.912048,499.139709 750.850525,496.314850 750.808105,492.494629 
M638.820862,478.903137 
	C636.585327,478.903137 634.349792,478.903137 631.802612,478.903137 
	C631.802612,475.597443 631.802612,472.986603 631.802612,470.370422 
	C629.603943,470.370422 627.741638,470.370422 625.507568,470.370422 
	C625.507568,473.301758 625.507568,475.895233 625.507568,478.561554 
	C623.340088,478.745880 621.551270,478.898041 619.662109,479.058716 
	C619.662109,480.780914 619.662109,482.325287 619.662109,483.826996 
	C621.761292,484.068756 623.509521,484.270111 625.299316,484.476257 
	C625.299316,491.653809 625.165894,498.447754 625.347229,505.233276 
	C625.464233,509.612823 626.064148,514.135559 630.849976,516.051331 
	C635.486755,517.907471 640.180603,517.926758 644.825989,514.696777 
	C644.191040,513.097900 643.605591,511.623871 643.026489,510.165771 
	C636.023743,512.436768 632.472229,511.559753 632.198059,507.003784 
	C631.745239,499.480042 632.075134,491.909180 632.075134,483.982361 
	C635.990479,483.982361 639.400208,483.982361 642.835022,483.982361 
	C643.048828,481.188721 643.969360,478.346741 638.820862,478.903137 
M953.201477,773.056030 
	C946.313904,772.786377 943.522705,770.516113 942.297485,763.894592 
	C950.079468,763.894592 957.802551,763.894592 965.508301,763.894592 
	C965.536072,754.736267 961.587097,749.159668 954.329895,747.763062 
	C946.434631,746.243530 940.103088,749.725708 937.269043,757.145935 
	C934.708984,763.848755 937.368835,771.794983 943.381897,775.408142 
	C950.401794,779.626343 958.592773,778.401184 964.074707,772.174744 
	C963.156860,771.172363 962.225891,770.155579 961.714844,769.597412 
	C958.778198,770.878845 956.385742,771.922791 953.201477,773.056030 
M897.992798,510.055115 
	C891.282166,512.733398 887.399719,511.415192 887.161377,505.985474 
	C886.848633,498.858704 887.084656,491.707886 887.084656,484.071838 
	C890.955444,484.071838 894.541809,484.071838 898.110474,484.071838 
	C898.110474,482.121063 898.110474,480.684570 898.110474,478.713257 
	C894.343384,478.713257 890.780090,478.713257 886.983093,478.713257 
	C886.983093,475.563385 886.983093,472.946411 886.983093,470.216736 
	C884.836365,470.216736 882.950378,470.216736 880.676392,470.216736 
	C880.676392,473.254120 880.676392,475.995361 880.676392,478.690979 
	C878.366577,478.888611 876.450073,479.052612 874.597778,479.211121 
	C874.597778,481.007690 874.597778,482.413239 874.597778,483.862579 
	C876.768188,484.082001 878.691956,484.276489 880.708374,484.480316 
	C880.708374,491.082794 880.768311,497.397461 880.688965,503.710358 
	C880.628723,508.502380 880.677673,513.428589 885.658386,515.831360 
	C890.740417,518.283020 895.935791,517.915344 900.786926,514.435120 
	C900.056458,512.945251 899.399475,511.605225 897.992798,510.055115 
M871.952820,756.808044 
	C867.838440,748.604126 862.009583,745.800171 853.293152,747.831787 
	C846.336609,749.453308 841.602844,755.407166 841.803040,762.635376 
	C841.972778,768.763977 844.767151,773.432068 850.415466,776.065613 
	C856.476257,778.891602 862.471558,778.541199 867.669739,774.277283 
	C872.977112,769.923706 873.913269,764.028503 871.952820,756.808044 
M1143.191528,747.684692 
	C1141.933228,747.804321 1140.674927,747.923889 1139.286865,748.055847 
	C1139.286865,754.119995 1139.094116,759.785461 1139.330078,765.432983 
	C1139.725098,774.892090 1147.330566,780.074219 1156.301147,777.061035 
	C1158.240112,776.409729 1159.956421,775.095520 1161.775269,774.086670 
	C1161.603638,774.480591 1161.432129,774.874451 1161.260498,775.268372 
	C1162.941040,776.122009 1164.621704,776.975647 1166.944458,778.155457 
	C1166.944458,767.314636 1166.944458,757.711182 1166.944458,747.982056 
	C1165.239502,747.982056 1163.683350,747.982056 1161.966064,747.982056 
	C1161.966064,750.756470 1161.966187,753.242920 1161.966064,755.729309 
	C1161.966064,758.226318 1162.131958,760.736633 1161.932861,763.217712 
	C1161.442139,769.334595 1157.046997,773.395691 1151.533936,773.022583 
	C1147.019287,772.717041 1144.687500,769.065247 1144.602661,762.661011 
	C1144.537720,757.750488 1144.182861,752.843750 1143.191528,747.684692 
M1250.068237,749.249146 
	C1248.020996,748.599426 1246.016357,747.693726 1243.919067,747.345215 
	C1235.720459,745.983032 1228.289795,751.305969 1226.738159,759.479126 
	C1225.138672,767.904114 1229.788208,775.255676 1237.977173,777.249634 
	C1245.133667,778.992249 1252.260254,776.070740 1255.443726,770.089050 
	C1259.160522,763.105713 1257.363892,755.405457 1250.068237,749.249146 
M885.424072,764.632568 
	C885.577393,756.292664 888.779907,751.982178 894.817139,751.989746 
	C900.468933,751.996826 902.860657,755.675964 902.872803,764.395935 
	C902.878723,768.638672 902.873779,772.881348 902.873779,777.067993 
	C904.779236,777.067993 906.226440,777.067993 907.889099,777.067993 
	C907.889099,771.404236 907.935120,765.956360 907.879333,760.509583 
	C907.767395,749.570923 899.666260,744.353699 889.574768,748.693909 
	C888.526428,749.144775 887.520325,749.693970 887.593811,749.657898 
	C884.745789,748.635864 882.789124,747.933777 880.389954,747.072815 
	C880.389954,757.769897 880.389954,767.316284 880.389954,776.897461 
	C882.173157,776.897461 883.718323,776.897461 885.420715,776.897461 
	C885.420715,772.880371 885.420715,769.233215 885.424072,764.632568 
M999.628662,754.093689 
	C997.401855,752.053589 995.500183,749.247925 992.879639,748.135010 
	C987.658020,745.917480 982.635498,747.660767 979.511414,750.177612 
	C976.951782,748.985046 975.260559,748.197144 973.157471,747.217285 
	C973.157471,757.819214 973.157471,767.260498 973.157471,776.983521 
	C974.857056,776.983521 976.395081,776.983521 978.144470,776.983521 
	C978.144470,774.248779 978.149170,771.772339 978.143250,769.295837 
	C978.136841,766.636841 977.974182,763.968689 978.138611,761.320679 
	C978.488342,755.691345 982.606262,751.751892 987.754089,751.924072 
	C992.531677,752.083862 995.572205,755.649963 995.697205,761.509705 
	C995.806519,766.633850 995.720093,771.762207 995.720093,777.339966 
	C997.628235,777.244873 999.170898,777.167969 1001.312744,777.061157 
	C1000.830261,769.339539 1000.377075,762.085754 999.628662,754.093689 
M925.810425,777.775879 
	C933.241760,777.321045 934.091980,776.468140 931.496216,772.072205 
	C925.975525,774.380737 924.042786,773.963440 923.710754,769.640503 
	C923.260742,763.781372 923.598755,757.861816 923.598755,751.715759 
	C926.725342,751.715759 929.312500,751.715759 932.133545,751.715759 
	C932.040710,750.170410 931.965210,748.913330 931.885986,747.594849 
	C929.144592,747.594849 926.702576,747.594849 924.024170,747.594849 
	C923.837708,745.400330 923.659790,743.306335 923.462891,740.988525 
	C921.765930,740.988525 920.240112,740.988525 918.433289,740.988525 
	C918.433289,743.271973 918.433289,745.188904 918.433289,747.105835 
	C918.099304,746.847046 917.765320,746.588196 917.431335,746.329346 
	C916.008789,747.712769 914.586304,749.096191 912.204834,751.412170 
	C915.546814,751.889893 916.930725,752.087708 918.629150,752.330505 
	C918.629150,758.100708 918.715210,763.575195 918.602844,769.045593 
	C918.507874,773.667175 920.205933,776.774109 925.810425,777.775879 
M1016.009521,752.732727 
	C1017.869385,752.437744 1019.735229,751.868713 1021.587769,751.909180 
	C1024.714722,751.977478 1025.342896,750.679871 1024.285278,747.727844 
	C1021.649109,747.727844 1019.017944,747.727844 1016.213806,747.727844 
	C1016.068054,745.206543 1015.938782,742.971436 1015.793213,740.453674 
	C1014.001160,740.577026 1012.581787,740.674744 1011.112915,740.775879 
	C1010.962097,743.175781 1010.830750,745.265381 1010.684082,747.597961 
	C1007.434448,747.282471 1004.879395,747.586853 1006.561157,751.649536 
	C1008.026672,751.906006 1009.430969,752.151672 1010.868774,752.403259 
	C1010.868774,757.486877 1010.841858,762.311096 1010.874390,767.134949 
	C1010.942810,777.277466 1016.987488,780.645386 1026.223999,775.432800 
	C1025.741211,774.321716 1025.246826,773.184265 1024.765869,772.077576 
	C1017.724609,774.290771 1016.049927,773.111328 1016.010254,766.170776 
	C1015.986511,762.011169 1016.005859,757.851379 1016.009521,752.732727 
M1117.893433,753.902710 
	C1117.920532,758.386597 1118.038452,762.872314 1117.946655,767.353821 
	C1117.868530,771.170105 1118.118896,774.837341 1122.064453,776.717102 
	C1125.945801,778.566040 1129.734497,778.274109 1133.386353,775.297974 
	C1132.801636,774.098022 1132.254883,772.975891 1131.726929,771.892517 
	C1124.350464,774.166260 1122.984741,773.146423 1122.993896,765.666992 
	C1122.999512,761.221619 1122.994995,756.776184 1122.994995,752.395996 
	C1131.632690,751.251587 1131.632690,751.251587 1131.248901,747.745972 
	C1128.655029,747.745972 1126.023926,747.745972 1123.044189,747.745972 
	C1123.044189,745.389771 1123.044189,743.293274 1123.044189,741.058228 
	C1121.147583,741.058228 1119.604370,741.058228 1117.899658,741.058228 
	C1117.899658,743.350464 1117.899658,745.323608 1117.899658,747.464661 
	C1116.200195,747.681396 1114.650635,747.878967 1113.390869,748.039612 
	C1110.852905,753.783447 1116.978516,750.714722 1117.893433,753.902710 
M1004.228149,511.319763 
	C1004.228149,513.091064 1004.228149,514.862366 1004.228149,516.709229 
	C1006.673462,516.709229 1008.583069,516.709229 1010.704712,516.709229 
	C1010.704712,504.049713 1010.704712,491.663086 1010.704712,479.134277 
	C1008.382507,479.134277 1006.321228,479.134277 1004.235229,479.134277 
	C1004.235229,489.752930 1004.235229,500.056854 1004.228149,511.319763 
M1219.296875,765.476929 
	C1219.296875,759.689392 1219.296875,753.901855 1219.296875,747.989197 
	C1217.451538,747.989197 1215.882202,747.989197 1214.421631,747.989197 
	C1214.421631,757.858032 1214.421631,767.412231 1214.421631,777.356201 
	C1216.286377,777.219910 1217.823242,777.107605 1219.295288,777.000000 
	C1219.295288,773.118164 1219.295288,769.789490 1219.296875,765.476929 
M655.041321,789.500000 
	C655.041321,752.720459 655.041321,715.940918 655.041321,679.161377 
	C654.797729,679.162781 654.554138,679.164185 654.310547,679.165588 
	C654.310547,733.390198 654.310547,787.614746 654.310547,841.839355 
	C654.553955,841.839905 654.797302,841.840515 655.040710,841.841125 
	C655.040710,824.727417 655.040710,807.613708 655.041321,789.500000 
M1006.025269,471.037323 
	C1007.815308,470.262177 1010.001099,469.863373 1011.238342,468.562469 
	C1011.917358,467.848541 1011.509705,465.162201 1010.654358,464.190887 
	C1009.792542,463.212097 1007.696838,462.745911 1006.269836,462.950104 
	C1002.513428,463.487579 1002.160583,467.021301 1006.025269,471.037323 
M1213.207764,739.241089 
	C1214.727295,740.118774 1216.182617,741.391541 1217.802124,741.655090 
	C1218.352905,741.744751 1219.872070,739.308472 1219.911865,737.994995 
	C1219.941895,737.002380 1217.804077,734.959229 1217.523804,735.104614 
	C1215.913208,735.940125 1214.568848,737.289124 1213.207764,739.241089 
z"/>
<path fill="#0C0D0D" opacity="1.000000" stroke="none" 
	d="
M835.999756,409.815918 
	C786.005127,409.822571 736.507324,410.164001 687.017090,409.696106 
	C661.369141,409.453644 641.302551,397.804504 629.411438,374.908783 
	C617.378296,351.739410 618.958252,328.582458 634.332275,307.132721 
	C646.708923,289.865112 664.235046,281.388184 685.179504,280.944458 
	C711.998352,280.376343 738.836792,280.727570 765.666748,280.699860 
	C766.279053,280.699219 766.891602,280.903717 767.544617,281.019745 
	C764.632629,283.776062 761.952087,286.484009 759.065735,288.950989 
	C758.081238,289.792480 756.581726,290.467804 755.312988,290.475647 
	C732.817261,290.614563 710.320557,290.706665 687.824341,290.672729 
	C645.902527,290.609467 619.031860,333.115936 638.175293,369.954590 
	C648.010010,388.880219 664.473633,399.337280 685.738953,399.515106 
	C739.893494,399.968079 794.055725,399.576416 848.214050,399.325165 
	C852.766479,399.304077 857.540161,398.423401 861.814270,396.858368 
	C871.294434,393.386993 877.683411,383.275635 876.843384,374.297607 
	C875.816772,363.326019 867.965454,354.806244 856.993347,352.971039 
	C854.060425,352.480499 851.050964,352.253815 848.075500,352.243652 
	C831.077698,352.185547 814.079224,352.292297 797.081482,352.221344 
	C779.230103,352.146820 765.068176,341.636383 761.890808,326.270630 
	C757.539185,305.226135 771.380737,286.139130 793.001404,285.155487 
	C814.453491,284.179535 835.975098,284.702881 857.466431,284.626007 
	C872.440918,284.572449 887.415833,284.615692 902.652832,284.615692 
	C902.652832,288.047455 902.652832,291.109039 902.652832,294.704987 
	C890.205811,294.704987 877.915649,294.690063 865.625427,294.708191 
	C842.629700,294.742126 819.631897,294.628357 796.638977,294.907135 
	C784.215454,295.057739 774.835327,302.115295 772.133118,312.464478 
	C768.479553,326.457306 777.394531,339.719879 792.053894,341.966156 
	C794.668640,342.366821 797.346863,342.488068 799.996948,342.500946 
	C817.827515,342.587738 835.668152,342.258240 853.486572,342.750824 
	C872.056213,343.264130 886.134033,356.269073 886.931396,372.724670 
	C887.835632,391.384735 875.222656,406.674194 856.417175,409.082855 
	C849.854370,409.923462 843.143127,409.604614 835.999756,409.815918 
z"/>
<path fill="#101112" opacity="1.000000" stroke="none" 
	d="
M481.999786,711.746033 
	C488.816833,711.746765 495.134094,711.746765 501.667084,711.746765 
	C501.667084,713.987610 501.667084,715.905212 501.667084,718.096985 
	C481.702393,718.096985 461.894897,718.059509 442.087891,718.135498 
	C438.950928,718.147522 435.774170,718.441772 432.688538,719.004395 
	C425.624176,720.292725 420.131805,727.211792 420.567413,733.946655 
	C421.034973,741.175659 426.105316,746.601440 433.853455,746.906067 
	C445.497101,747.364014 457.167816,747.091919 468.825165,747.260010 
	C475.488007,747.356018 481.783295,748.860779 486.494232,753.986206 
	C492.377258,760.386841 493.492523,767.895752 490.078125,775.732788 
	C486.022156,785.042175 478.081909,788.833435 468.400665,788.904602 
	C445.578033,789.072571 422.752869,789.050110 399.929749,788.923096 
	C387.290314,788.852783 374.505493,789.533020 362.048767,787.887451 
	C342.749847,785.337830 330.132782,769.579224 329.442230,749.613708 
	C328.844391,732.329529 341.250549,716.113586 358.812256,711.490051 
	C362.002167,710.650146 365.378418,710.166321 368.673859,710.138672 
	C384.830872,710.002991 400.989624,710.077148 417.573975,710.077148 
	C414.200317,714.234131 410.986572,716.907837 405.047150,716.666504 
	C392.253357,716.147034 379.393280,716.239624 366.603027,716.903687 
	C349.355225,717.799011 335.848267,732.600037 335.932770,749.600769 
	C336.017120,766.573914 349.623962,781.440369 366.846283,782.045593 
	C384.812195,782.677063 402.816925,782.202271 420.804688,782.215210 
	C435.964966,782.226135 451.126038,782.329346 466.284882,782.188477 
	C469.548370,782.158203 472.991241,781.765991 476.023926,780.650208 
	C482.372467,778.314392 485.949493,771.864685 485.020020,765.594604 
	C484.105865,759.427979 479.282043,754.475891 472.405701,754.151184 
	C461.436890,753.633179 450.427460,754.035034 439.445801,753.699951 
	C435.176971,753.569702 430.790253,752.978882 426.715515,751.744934 
	C419.130371,749.447876 414.813019,743.820984 414.032867,736.044250 
	C413.172546,727.468079 415.889709,719.846252 423.828918,715.784302 
	C428.382294,713.454651 433.889618,712.147034 439.025208,711.959351 
	C453.167175,711.442566 467.339600,711.758667 481.999786,711.746033 
z"/>
<path fill="#111112" opacity="1.000000" stroke="none" 
	d="
M838.220215,516.355103 
	C830.744019,516.993652 823.637634,517.731079 816.517212,517.907776 
	C806.736084,518.150574 796.944397,517.968567 786.817566,517.968567 
	C787.559692,515.441711 788.156067,513.411194 788.804993,511.201538 
	C801.592651,511.201538 814.217163,511.229370 826.841370,511.176270 
	C829.157227,511.166534 831.539612,511.114136 833.773560,510.584778 
	C839.346680,509.264191 842.698853,504.669342 842.018921,499.727478 
	C841.404663,495.263123 837.447571,492.151642 831.797485,492.047485 
	C824.467651,491.912354 817.132385,492.083740 809.801819,491.971893 
	C798.992920,491.807007 791.700256,485.184937 791.983154,475.952606 
	C792.217102,468.321564 797.473877,462.325897 806.183228,461.081696 
	C812.569397,460.169342 819.119385,460.281799 825.600037,460.182922 
	C834.383972,460.048920 843.171448,460.149567 852.374146,460.149567 
	C851.758423,462.590393 851.278503,464.492737 850.655090,466.963959 
	C838.377502,466.963959 826.095825,466.878845 813.816833,467.023254 
	C810.710205,467.059784 807.044006,466.952850 804.663757,468.497314 
	C802.085449,470.170319 799.625610,473.497833 799.081604,476.464539 
	C798.388611,480.244171 801.197754,483.406891 804.976501,484.760071 
	C807.111572,485.524689 809.500061,485.832031 811.784546,485.882294 
	C818.613770,486.032593 825.448364,485.908966 832.280090,485.977051 
	C840.982178,486.063812 847.373962,490.279358 848.885620,496.823761 
	C850.758789,504.933563 846.768921,512.439331 838.220215,516.355103 
z"/>
<path fill="#101011" opacity="1.000000" stroke="none" 
	d="
M991.892334,469.226074 
	C991.893188,485.298920 991.893188,500.901855 991.893188,516.713867 
	C989.698914,516.713867 987.921021,516.713867 985.810242,516.713867 
	C985.639282,515.244690 985.457458,513.681885 985.414062,513.308716 
	C980.784607,514.617920 976.178833,516.469543 971.409180,517.120422 
	C966.281738,517.820068 961.611572,515.915100 958.006409,511.899933 
	C951.093506,504.200653 950.844971,491.961609 957.493469,484.513306 
	C964.300049,476.887909 974.898499,476.298492 985.069702,483.488800 
	C985.069702,479.859924 985.069641,476.656738 985.069641,473.453552 
	C985.069641,470.131775 985.069702,466.809998 985.069702,463.192688 
	C987.351501,463.192688 989.427063,463.192688 991.891418,463.192688 
	C991.891418,465.159912 991.891418,466.958069 991.892334,469.226074 
M959.419922,496.039917 
	C959.047546,503.007935 962.495483,508.997864 967.920837,510.808075 
	C973.612305,512.707092 980.136108,510.567108 983.132446,505.691101 
	C986.272461,500.581299 986.341919,495.322388 983.211182,490.216583 
	C980.427429,485.676483 975.926025,483.818359 970.906067,484.375122 
	C964.627136,485.071442 960.898987,489.060028 959.419922,496.039917 
z"/>
<path fill="#0D0E0E" opacity="1.000000" stroke="none" 
	d="
M1058.019409,773.045959 
	C1064.345337,773.038879 1070.175171,773.060547 1076.004272,773.009155 
	C1077.491577,772.996094 1079.016846,772.920715 1080.455566,772.581299 
	C1084.670166,771.586975 1087.379272,768.883423 1087.197754,764.517395 
	C1087.007568,759.943726 1083.295166,758.505066 1079.462158,758.301636 
	C1073.981812,758.010681 1068.469604,758.370972 1062.979370,758.193787 
	C1060.540771,758.115173 1057.963135,757.798889 1055.726929,756.898865 
	C1050.446655,754.773743 1048.261841,750.955872 1048.642578,745.548035 
	C1049.001099,740.455994 1052.093750,736.453613 1057.056152,734.935608 
	C1058.786987,734.406067 1060.632812,733.994873 1062.429688,733.980713 
	C1073.405273,733.894165 1084.382080,733.937500 1095.792603,733.937500 
	C1095.356201,735.647339 1094.975952,737.137085 1094.518555,738.929565 
	C1087.692505,738.929565 1081.046143,738.919189 1074.399780,738.933655 
	C1070.735718,738.941650 1067.068604,738.909668 1063.408203,739.041443 
	C1057.724731,739.246155 1054.205811,741.941956 1054.038940,746.055786 
	C1053.862793,750.397949 1057.409668,753.398926 1063.380249,753.567688 
	C1069.037842,753.727661 1074.708618,753.428894 1080.365967,753.593018 
	C1087.566284,753.802002 1092.287354,757.526001 1093.022583,763.228943 
	C1093.852661,769.669006 1090.263428,774.916016 1083.447998,777.057556 
	C1081.881836,777.549683 1080.217529,777.987427 1078.594971,777.999329 
	C1067.453979,778.080627 1056.312134,778.042053 1044.673218,778.042053 
	C1045.073853,776.219849 1045.400757,774.732910 1045.771362,773.047546 
	C1049.915405,773.047546 1053.719238,773.047546 1058.019409,773.045959 
z"/>
<path fill="#0E0F10" opacity="1.000000" stroke="none" 
	d="
M488.665100,467.554565 
	C500.755585,462.938599 511.433014,464.413727 521.200989,473.227356 
	C519.748047,474.754517 518.436462,476.132996 516.862061,477.787781 
	C510.805511,472.684631 504.012421,469.512054 496.306519,472.091675 
	C492.077240,473.507477 487.573029,475.852722 484.661926,479.097137 
	C478.261475,486.230408 479.441254,498.605743 486.249023,505.435883 
	C493.958893,513.171021 506.650970,513.063293 516.609497,505.128296 
	C518.083862,506.394745 519.568298,507.669769 521.298523,509.155975 
	C512.248291,518.316223 501.615021,519.219910 490.362671,515.785706 
	C480.537476,512.787109 473.891815,503.288055 473.556671,492.116882 
	C473.222107,480.965668 478.021149,472.601654 488.665100,467.554565 
z"/>
<path fill="#101011" opacity="1.000000" stroke="none" 
	d="
M653.389954,510.569824 
	C649.339111,505.392120 648.174377,499.768219 649.275330,493.804749 
	C651.209961,483.325165 659.876099,477.245544 670.393066,478.681976 
	C681.404419,480.185944 686.712402,487.276581 685.965576,499.882324 
	C676.083984,499.882324 666.169800,499.882324 655.707397,499.882324 
	C656.515015,504.859772 658.586121,508.269714 662.876343,510.176666 
	C668.750916,512.787842 674.075684,511.808838 680.666687,506.765991 
	C681.819946,508.016479 682.998352,509.294342 684.163757,510.558014 
	C675.579773,519.862732 662.653320,519.900879 653.389954,510.569824 
M677.246399,488.353485 
	C673.855164,484.129242 669.420898,482.903992 664.399048,484.425995 
	C659.412109,485.937378 656.464172,489.417480 655.775330,494.828735 
	C663.943787,494.828735 671.870605,494.828735 680.257141,494.828735 
	C679.267639,492.548126 678.489746,490.755249 677.246399,488.353485 
z"/>
<path fill="#0E0F10" opacity="1.000000" stroke="none" 
	d="
M1032.511475,479.314453 
	C1039.080444,477.516876 1045.084595,477.706635 1050.638916,481.276489 
	C1058.348877,486.231812 1061.568970,495.749786 1058.572632,504.478088 
	C1055.595093,513.151978 1047.883057,518.056396 1038.346191,517.340881 
	C1028.441162,516.597717 1022.082336,510.902832 1020.257446,501.140808 
	C1018.463684,491.545532 1022.684692,483.844940 1032.511475,479.314453 
M1052.074829,493.686005 
	C1049.152710,485.826599 1042.916992,482.597473 1035.230835,484.963440 
	C1028.700684,486.973572 1025.124878,494.620758 1027.260376,502.009216 
	C1029.256958,508.917389 1035.629883,512.605835 1042.751099,510.974854 
	C1050.159912,509.277985 1053.904175,502.737183 1052.074829,493.686005 
z"/>
<path fill="#0E0F10" opacity="1.000000" stroke="none" 
	d="
M554.323486,479.453186 
	C565.739563,484.596527 570.135376,496.146881 565.120422,507.049988 
	C560.941101,516.136292 547.988342,520.207092 537.868896,515.614502 
	C528.495850,511.360626 524.297241,498.525299 529.042725,488.632874 
	C533.061584,480.255219 542.208130,476.826569 554.323486,479.453186 
M545.719116,511.453979 
	C547.517456,511.244415 549.377136,511.258118 551.102722,510.783783 
	C556.460388,509.311127 560.299866,503.850952 560.314636,497.979675 
	C560.329956,491.854340 556.651672,486.472778 551.420654,484.967407 
	C543.483582,482.683350 536.212769,486.530518 534.265991,494.044312 
	C532.170593,502.131775 536.612000,509.323212 545.719116,511.453979 
z"/>
<path fill="#0E0F10" opacity="1.000000" stroke="none" 
	d="
M916.067993,506.454468 
	C918.826965,511.308990 922.950806,511.842377 927.482483,511.009186 
	C932.231995,510.135986 935.505066,507.278503 936.017700,502.484741 
	C936.652344,496.550690 936.573547,490.539246 936.770264,484.560150 
	C936.829346,482.763702 936.779358,480.963623 936.779358,479.042664 
	C939.097107,479.042664 941.020264,479.042664 943.112000,479.042664 
	C943.112000,491.681458 943.112000,504.116730 943.112000,516.750366 
	C941.187805,516.750366 939.400269,516.750366 937.210144,516.750366 
	C937.102539,515.283203 936.989136,513.737183 936.946228,513.151978 
	C932.701172,514.489441 928.393311,516.789124 923.965210,517.050293 
	C914.024780,517.636719 908.536133,511.973541 908.124329,502.000580 
	C908.103699,501.501465 908.113159,501.001007 908.113159,500.501160 
	C908.112549,493.505096 908.112732,486.509003 908.112732,479.143250 
	C910.037781,479.143250 911.924255,479.143250 913.919678,479.143250 
	C914.583618,488.019409 915.258423,497.040405 916.067993,506.454468 
z"/>
<path fill="#141515" opacity="1.000000" stroke="none" 
	d="
M576.171387,492.013489 
	C576.174500,487.520325 576.174500,483.523773 576.174500,479.137543 
	C578.261719,479.137543 580.149353,479.137543 582.395630,479.137543 
	C582.581421,480.393616 582.784668,481.767914 582.786804,481.782593 
	C588.113037,480.610443 593.312317,478.461182 598.464050,478.569794 
	C606.042725,478.729553 611.119019,484.195709 611.710205,492.251648 
	C612.302856,500.328003 611.840393,508.481781 611.840393,516.774292 
	C609.546753,516.774292 607.627197,516.774292 605.224243,516.774292 
	C605.224243,509.945374 605.258728,503.326630 605.215637,496.708374 
	C605.160156,488.180115 602.091980,484.576782 594.838379,484.402893 
	C587.978699,484.238464 583.039795,489.400116 582.940674,497.002594 
	C582.856384,503.469238 582.923279,509.937866 582.923279,516.679565 
	C580.724365,516.679565 578.795715,516.679565 576.168335,516.679565 
	C576.168335,508.691956 576.168335,500.601044 576.171387,492.013489 
z"/>
<path fill="#0C0D0D" opacity="1.000000" stroke="none" 
	d="
M723.535400,480.232056 
	C728.301147,483.184906 730.738647,487.331787 730.920288,492.409241 
	C731.205078,500.369232 730.995850,508.346863 730.995850,516.614929 
	C728.831970,516.614929 726.946289,516.614929 724.746582,516.614929 
	C724.746582,510.183960 724.793823,503.866974 724.735168,497.550934 
	C724.654419,488.852783 720.735901,484.039001 713.972839,484.197998 
	C706.599243,484.371429 702.124207,489.560760 702.116394,497.958710 
	C702.110657,504.105347 702.115295,510.252014 702.115295,516.651001 
	C700.005676,516.651001 698.091675,516.651001 695.973999,516.651001 
	C695.973999,504.227905 695.973999,491.806946 695.973999,479.106934 
	C697.794434,479.021759 699.411926,478.946075 701.435486,478.851379 
	C701.668762,480.553741 701.882019,482.110168 702.163818,484.166199 
	C708.349426,477.940704 715.451721,477.120270 723.535400,480.232056 
z"/>
<path fill="#121313" opacity="1.000000" stroke="none" 
	d="
M1199.330322,743.005737 
	C1199.326538,740.246155 1199.326538,737.948364 1199.326538,735.433350 
	C1201.193726,735.433350 1202.607666,735.433350 1204.253174,735.433350 
	C1204.253174,749.384033 1204.253174,763.139160 1204.253174,778.391663 
	C1201.800049,776.824036 1200.214478,775.810852 1198.262817,774.563660 
	C1191.007935,779.278687 1183.075073,778.788330 1177.748901,772.667725 
	C1173.043335,767.260315 1173.041626,757.861694 1177.745239,752.400269 
	C1182.943726,746.364136 1190.719727,745.713806 1199.334106,750.955322 
	C1199.334106,748.267822 1199.334106,745.867676 1199.330322,743.005737 
M1199.011475,765.843079 
	C1200.417725,756.687439 1194.771240,750.191467 1187.174194,752.224792 
	C1182.532837,753.467041 1179.605225,757.243225 1179.517944,762.099548 
	C1179.426147,767.217834 1182.770874,771.655334 1187.571533,772.784180 
	C1191.975220,773.819763 1196.000488,771.620178 1199.011475,765.843079 
z"/>
<path fill="#121313" opacity="1.000000" stroke="none" 
	d="
M804.796265,744.863159 
	C814.133606,734.788025 828.391296,734.306335 837.533691,743.798645 
	C836.395996,744.724426 835.250671,745.656433 834.083557,746.606140 
	C823.717896,740.181946 814.947266,740.573303 809.348633,747.775330 
	C804.853943,753.557190 805.443420,762.672119 810.647339,767.852966 
	C817.303955,774.480225 825.061218,774.482300 834.388428,767.434204 
	C835.351807,768.569031 836.379700,769.779724 837.385925,770.965027 
	C832.300415,778.206848 818.642090,780.569336 808.846619,773.778625 
	C801.195496,768.474365 798.581482,756.744568 803.142273,747.776428 
	C803.593140,746.889954 804.123596,746.043945 804.796265,744.863159 
z"/>
<path fill="#141515" opacity="1.000000" stroke="none" 
	d="
M750.812378,492.992310 
	C750.850525,496.314850 750.912048,499.139709 750.913147,501.964539 
	C750.916809,511.344574 753.123779,512.970886 762.236389,509.929932 
	C762.900513,511.297668 763.585449,512.708130 764.355835,514.294556 
	C760.031982,518.193726 755.206909,518.032471 750.334595,516.360291 
	C745.441040,514.680908 744.561096,510.316193 744.301331,505.882751 
	C744.097534,502.405029 744.259460,498.905853 744.259277,495.416229 
	C744.259033,491.950836 744.259277,488.485413 744.259277,484.619537 
	C742.385254,484.403870 740.485718,484.185242 738.453003,483.951294 
	C738.453003,482.355560 738.453003,480.759735 738.453003,479.045532 
	C740.476562,478.868927 742.256042,478.713654 744.332764,478.532410 
	C744.332764,475.760071 744.332764,473.145752 744.332764,470.273682 
	C746.545166,470.273682 748.444153,470.273682 750.776001,470.273682 
	C750.776001,473.090393 750.776001,475.847107 750.776001,478.845490 
	C754.660278,478.845490 758.117493,478.845490 761.917847,478.845490 
	C762.025635,480.641418 762.119751,482.210358 762.238403,484.187927 
	C758.362305,484.187927 754.769348,484.187927 750.808105,484.187927 
	C750.808105,487.215759 750.808105,489.855194 750.812378,492.992310 
z"/>
<path fill="#101011" opacity="1.000000" stroke="none" 
	d="
M639.267334,478.906921 
	C643.969360,478.346741 643.048828,481.188721 642.835022,483.982361 
	C639.400208,483.982361 635.990479,483.982361 632.075134,483.982361 
	C632.075134,491.909180 631.745239,499.480042 632.198059,507.003784 
	C632.472229,511.559753 636.023743,512.436768 643.026489,510.165771 
	C643.605591,511.623871 644.191040,513.097900 644.825989,514.696777 
	C640.180603,517.926758 635.486755,517.907471 630.849976,516.051331 
	C626.064148,514.135559 625.464233,509.612823 625.347229,505.233276 
	C625.165894,498.447754 625.299316,491.653809 625.299316,484.476257 
	C623.509521,484.270111 621.761292,484.068756 619.662109,483.826996 
	C619.662109,482.325287 619.662109,480.780914 619.662109,479.058716 
	C621.551270,478.898041 623.340088,478.745880 625.507568,478.561554 
	C625.507568,475.895233 625.507568,473.301758 625.507568,470.370422 
	C627.741638,470.370422 629.603943,470.370422 631.802612,470.370422 
	C631.802612,472.986603 631.802612,475.597443 631.802612,478.903137 
	C634.349792,478.903137 636.585327,478.903137 639.267334,478.906921 
z"/>
<path fill="#141515" opacity="1.000000" stroke="none" 
	d="
M953.597412,773.011414 
	C956.385742,771.922791 958.778198,770.878845 961.714844,769.597412 
	C962.225891,770.155579 963.156860,771.172363 964.074707,772.174744 
	C958.592773,778.401184 950.401794,779.626343 943.381897,775.408142 
	C937.368835,771.794983 934.708984,763.848755 937.269043,757.145935 
	C940.103088,749.725708 946.434631,746.243530 954.329895,747.763062 
	C961.587097,749.159668 965.536072,754.736267 965.508301,763.894592 
	C957.802551,763.894592 950.079468,763.894592 942.297485,763.894592 
	C943.522705,770.516113 946.313904,772.786377 953.597412,773.011414 
M957.260376,760.334473 
	C960.314941,760.636536 960.765503,759.334167 959.394104,756.888245 
	C957.411682,753.352539 954.395386,751.518127 950.369568,752.067932 
	C945.846985,752.685608 942.988586,755.285156 942.101929,760.332397 
	C947.033386,760.332397 951.672485,760.332397 957.260376,760.334473 
z"/>
<path fill="#0A0B0B" opacity="1.000000" stroke="none" 
	d="
M898.367615,510.160156 
	C899.399475,511.605225 900.056458,512.945251 900.786926,514.435120 
	C895.935791,517.915344 890.740417,518.283020 885.658386,515.831360 
	C880.677673,513.428589 880.628723,508.502380 880.688965,503.710358 
	C880.768311,497.397461 880.708374,491.082794 880.708374,484.480316 
	C878.691956,484.276489 876.768188,484.082001 874.597778,483.862579 
	C874.597778,482.413239 874.597778,481.007690 874.597778,479.211121 
	C876.450073,479.052612 878.366577,478.888611 880.676392,478.690979 
	C880.676392,475.995361 880.676392,473.254120 880.676392,470.216736 
	C882.950378,470.216736 884.836365,470.216736 886.983093,470.216736 
	C886.983093,472.946411 886.983093,475.563385 886.983093,478.713257 
	C890.780090,478.713257 894.343384,478.713257 898.110474,478.713257 
	C898.110474,480.684570 898.110474,482.121063 898.110474,484.071838 
	C894.541809,484.071838 890.955444,484.071838 887.084656,484.071838 
	C887.084656,491.707886 886.848633,498.858704 887.161377,505.985474 
	C887.399719,511.415192 891.282166,512.733398 898.367615,510.160156 
z"/>
<path fill="#131414" opacity="1.000000" stroke="none" 
	d="
M872.054932,757.198059 
	C873.913269,764.028503 872.977112,769.923706 867.669739,774.277283 
	C862.471558,778.541199 856.476257,778.891602 850.415466,776.065613 
	C844.767151,773.432068 841.972778,768.763977 841.803040,762.635376 
	C841.602844,755.407166 846.336609,749.453308 853.293152,747.831787 
	C862.009583,745.800171 867.838440,748.604126 872.054932,757.198059 
M848.345886,766.867371 
	C850.816162,771.424927 854.495728,773.861694 859.753662,772.667725 
	C865.615967,771.336426 868.697266,765.619629 867.079895,759.639709 
	C865.552124,753.991028 860.294128,750.695618 855.060303,752.106506 
	C848.867004,753.775940 846.024780,759.489685 848.345886,766.867371 
z"/>
<path fill="#141515" opacity="1.000000" stroke="none" 
	d="
M1143.574219,747.810059 
	C1144.182861,752.843750 1144.537720,757.750488 1144.602661,762.661011 
	C1144.687500,769.065247 1147.019287,772.717041 1151.533936,773.022583 
	C1157.046997,773.395691 1161.442139,769.334595 1161.932861,763.217712 
	C1162.131958,760.736633 1161.966064,758.226318 1161.966064,755.729309 
	C1161.966187,753.242920 1161.966064,750.756470 1161.966064,747.982056 
	C1163.683350,747.982056 1165.239502,747.982056 1166.944458,747.982056 
	C1166.944458,757.711182 1166.944458,767.314636 1166.944458,778.155457 
	C1164.621704,776.975647 1162.941040,776.122009 1161.260498,775.268372 
	C1161.432129,774.874451 1161.603638,774.480591 1161.775269,774.086670 
	C1159.956421,775.095520 1158.240112,776.409729 1156.301147,777.061035 
	C1147.330566,780.074219 1139.725098,774.892090 1139.330078,765.432983 
	C1139.094116,759.785461 1139.286865,754.119995 1139.286865,748.055847 
	C1140.674927,747.923889 1141.933228,747.804321 1143.574219,747.810059 
z"/>
<path fill="#121313" opacity="1.000000" stroke="none" 
	d="
M1250.374756,749.462891 
	C1257.363892,755.405457 1259.160522,763.105713 1255.443726,770.089050 
	C1252.260254,776.070740 1245.133667,778.992249 1237.977173,777.249634 
	C1229.788208,775.255676 1225.138672,767.904114 1226.738159,759.479126 
	C1228.289795,751.305969 1235.720459,745.983032 1243.919067,747.345215 
	C1246.016357,747.693726 1248.020996,748.599426 1250.374756,749.462891 
M1247.515015,771.243652 
	C1248.526123,770.157043 1249.748413,769.200256 1250.510864,767.960693 
	C1253.398438,763.266968 1251.975220,756.903687 1247.484619,753.802124 
	C1243.008179,750.710327 1237.417969,751.444580 1234.088257,755.561707 
	C1230.991333,759.390930 1230.942627,764.916260 1233.970093,768.952148 
	C1236.910645,772.872131 1241.267822,773.803101 1247.515015,771.243652 
z"/>
<path fill="#121313" opacity="1.000000" stroke="none" 
	d="
M885.422363,765.109314 
	C885.420715,769.233215 885.420715,772.880371 885.420715,776.897461 
	C883.718323,776.897461 882.173157,776.897461 880.389954,776.897461 
	C880.389954,767.316284 880.389954,757.769897 880.389954,747.072815 
	C882.789124,747.933777 884.745789,748.635864 887.593811,749.657898 
	C887.520325,749.693970 888.526428,749.144775 889.574768,748.693909 
	C899.666260,744.353699 907.767395,749.570923 907.879333,760.509583 
	C907.935120,765.956360 907.889099,771.404236 907.889099,777.067993 
	C906.226440,777.067993 904.779236,777.067993 902.873779,777.067993 
	C902.873779,772.881348 902.878723,768.638672 902.872803,764.395935 
	C902.860657,755.675964 900.468933,751.996826 894.817139,751.989746 
	C888.779907,751.982178 885.577393,756.292664 885.422363,765.109314 
z"/>
<path fill="#111112" opacity="1.000000" stroke="none" 
	d="
M999.776245,754.462830 
	C1000.377075,762.085754 1000.830261,769.339539 1001.312744,777.061157 
	C999.170898,777.167969 997.628235,777.244873 995.720093,777.339966 
	C995.720093,771.762207 995.806519,766.633850 995.697205,761.509705 
	C995.572205,755.649963 992.531677,752.083862 987.754089,751.924072 
	C982.606262,751.751892 978.488342,755.691345 978.138611,761.320679 
	C977.974182,763.968689 978.136841,766.636841 978.143250,769.295837 
	C978.149170,771.772339 978.144470,774.248779 978.144470,776.983521 
	C976.395081,776.983521 974.857056,776.983521 973.157471,776.983521 
	C973.157471,767.260498 973.157471,757.819214 973.157471,747.217285 
	C975.260559,748.197144 976.951782,748.985046 979.511414,750.177612 
	C982.635498,747.660767 987.658020,745.917480 992.879639,748.135010 
	C995.500183,749.247925 997.401855,752.053589 999.776245,754.462830 
z"/>
<path fill="#131414" opacity="1.000000" stroke="none" 
	d="
M925.421143,777.700195 
	C920.205933,776.774109 918.507874,773.667175 918.602844,769.045593 
	C918.715210,763.575195 918.629150,758.100708 918.629150,752.330505 
	C916.930725,752.087708 915.546814,751.889893 912.204834,751.412170 
	C914.586304,749.096191 916.008789,747.712769 917.431335,746.329346 
	C917.765320,746.588196 918.099304,746.847046 918.433289,747.105835 
	C918.433289,745.188904 918.433289,743.271973 918.433289,740.988525 
	C920.240112,740.988525 921.765930,740.988525 923.462891,740.988525 
	C923.659790,743.306335 923.837708,745.400330 924.024170,747.594849 
	C926.702576,747.594849 929.144592,747.594849 931.885986,747.594849 
	C931.965210,748.913330 932.040710,750.170410 932.133545,751.715759 
	C929.312500,751.715759 926.725342,751.715759 923.598755,751.715759 
	C923.598755,757.861816 923.260742,763.781372 923.710754,769.640503 
	C924.042786,773.963440 925.975525,774.380737 931.496216,772.072205 
	C934.091980,776.468140 933.241760,777.321045 925.421143,777.700195 
z"/>
<path fill="#121313" opacity="1.000000" stroke="none" 
	d="
M1016.007690,753.212158 
	C1016.005859,757.851379 1015.986511,762.011169 1016.010254,766.170776 
	C1016.049927,773.111328 1017.724609,774.290771 1024.765869,772.077576 
	C1025.246826,773.184265 1025.741211,774.321716 1026.223999,775.432800 
	C1016.987488,780.645386 1010.942810,777.277466 1010.874390,767.134949 
	C1010.841858,762.311096 1010.868774,757.486877 1010.868774,752.403259 
	C1009.430969,752.151672 1008.026672,751.906006 1006.561157,751.649536 
	C1004.879395,747.586853 1007.434448,747.282471 1010.684082,747.597961 
	C1010.830750,745.265381 1010.962097,743.175781 1011.112915,740.775879 
	C1012.581787,740.674744 1014.001160,740.577026 1015.793213,740.453674 
	C1015.938782,742.971436 1016.068054,745.206543 1016.213806,747.727844 
	C1019.017944,747.727844 1021.649109,747.727844 1024.285278,747.727844 
	C1025.342896,750.679871 1024.714722,751.977478 1021.587769,751.909180 
	C1019.735229,751.868713 1017.869385,752.437744 1016.007690,753.212158 
z"/>
<path fill="#111112" opacity="1.000000" stroke="none" 
	d="
M1117.858398,753.442139 
	C1116.978516,750.714722 1110.852905,753.783447 1113.390869,748.039612 
	C1114.650635,747.878967 1116.200195,747.681396 1117.899658,747.464661 
	C1117.899658,745.323608 1117.899658,743.350464 1117.899658,741.058228 
	C1119.604370,741.058228 1121.147583,741.058228 1123.044189,741.058228 
	C1123.044189,743.293274 1123.044189,745.389771 1123.044189,747.745972 
	C1126.023926,747.745972 1128.655029,747.745972 1131.248901,747.745972 
	C1131.632690,751.251587 1131.632690,751.251587 1122.994995,752.395996 
	C1122.994995,756.776184 1122.999512,761.221619 1122.993896,765.666992 
	C1122.984741,773.146423 1124.350464,774.166260 1131.726929,771.892517 
	C1132.254883,772.975891 1132.801636,774.098022 1133.386353,775.297974 
	C1129.734497,778.274109 1125.945801,778.566040 1122.064453,776.717102 
	C1118.118896,774.837341 1117.868530,771.170105 1117.946655,767.353821 
	C1118.038452,762.872314 1117.920532,758.386597 1117.858398,753.442139 
z"/>
<path fill="#1B1B1C" opacity="1.000000" stroke="none" 
	d="
M1004.231689,510.840271 
	C1004.235229,500.056854 1004.235229,489.752930 1004.235229,479.134277 
	C1006.321228,479.134277 1008.382507,479.134277 1010.704712,479.134277 
	C1010.704712,491.663086 1010.704712,504.049713 1010.704712,516.709229 
	C1008.583069,516.709229 1006.673462,516.709229 1004.228149,516.709229 
	C1004.228149,514.862366 1004.228149,513.091064 1004.231689,510.840271 
z"/>
<path fill="#141515" opacity="1.000000" stroke="none" 
	d="
M1219.296143,765.968872 
	C1219.295288,769.789490 1219.295288,773.118164 1219.295288,777.000000 
	C1217.823242,777.107605 1216.286377,777.219910 1214.421631,777.356201 
	C1214.421631,767.412231 1214.421631,757.858032 1214.421631,747.989197 
	C1215.882202,747.989197 1217.451538,747.989197 1219.296875,747.989197 
	C1219.296875,753.901855 1219.296875,759.689392 1219.296143,765.968872 
z"/>
<path fill="#D6D6D6" opacity="1.000000" stroke="none" 
	d="
M655.041016,790.000000 
	C655.040710,807.613708 655.040710,824.727417 655.040710,841.841125 
	C654.797302,841.840515 654.553955,841.839905 654.310547,841.839355 
	C654.310547,787.614746 654.310547,733.390198 654.310547,679.165588 
	C654.554138,679.164185 654.797729,679.162781 655.041321,679.161377 
	C655.041321,715.940918 655.041321,752.720459 655.041016,790.000000 
z"/>
<path fill="#141515" opacity="1.000000" stroke="none" 
	d="
M1005.686157,470.931458 
	C1002.160583,467.021301 1002.513428,463.487579 1006.269836,462.950104 
	C1007.696838,462.745911 1009.792542,463.212097 1010.654358,464.190887 
	C1011.509705,465.162201 1011.917358,467.848541 1011.238342,468.562469 
	C1010.001099,469.863373 1007.815308,470.262177 1005.686157,470.931458 
z"/>
<path fill="#1B1B1C" opacity="1.000000" stroke="none" 
	d="
M1213.170898,738.852539 
	C1214.568848,737.289124 1215.913208,735.940125 1217.523804,735.104614 
	C1217.804077,734.959229 1219.941895,737.002380 1219.911865,737.994995 
	C1219.872070,739.308472 1218.352905,741.744751 1217.802124,741.655090 
	C1216.182617,741.391541 1214.727295,740.118774 1213.170898,738.852539 
z"/>
<path fill="#F9F9F9" opacity="1.000000" stroke="none" 
	d="
M959.541260,495.664490 
	C960.898987,489.060028 964.627136,485.071442 970.906067,484.375122 
	C975.926025,483.818359 980.427429,485.676483 983.211182,490.216583 
	C986.341919,495.322388 986.272461,500.581299 983.132446,505.691101 
	C980.136108,510.567108 973.612305,512.707092 967.920837,510.808075 
	C962.495483,508.997864 959.047546,503.007935 959.541260,495.664490 
z"/>
<path fill="#F8F8F8" opacity="1.000000" stroke="none" 
	d="
M677.479126,488.657898 
	C678.489746,490.755249 679.267639,492.548126 680.257141,494.828735 
	C671.870605,494.828735 663.943787,494.828735 655.775330,494.828735 
	C656.464172,489.417480 659.412109,485.937378 664.399048,484.425995 
	C669.420898,482.903992 673.855164,484.129242 677.479126,488.657898 
z"/>
<path fill="#F9F9F9" opacity="1.000000" stroke="none" 
	d="
M1052.136108,494.079773 
	C1053.904175,502.737183 1050.159912,509.277985 1042.751099,510.974854 
	C1035.629883,512.605835 1029.256958,508.917389 1027.260376,502.009216 
	C1025.124878,494.620758 1028.700684,486.973572 1035.230835,484.963440 
	C1042.916992,482.597473 1049.152710,485.826599 1052.136108,494.079773 
z"/>
<path fill="#F9F9F9" opacity="1.000000" stroke="none" 
	d="
M545.303040,511.347839 
	C536.612000,509.323212 532.170593,502.131775 534.265991,494.044312 
	C536.212769,486.530518 543.483582,482.683350 551.420654,484.967407 
	C556.651672,486.472778 560.329956,491.854340 560.314636,497.979675 
	C560.299866,503.850952 556.460388,509.311127 551.102722,510.783783 
	C549.377136,511.258118 547.517456,511.244415 545.303040,511.347839 
z"/>
<path fill="#F8F8F8" opacity="1.000000" stroke="none" 
	d="
M1198.905396,766.245972 
	C1196.000488,771.620178 1191.975220,773.819763 1187.571533,772.784180 
	C1182.770874,771.655334 1179.426147,767.217834 1179.517944,762.099548 
	C1179.605225,757.243225 1182.532837,753.467041 1187.174194,752.224792 
	C1194.771240,750.191467 1200.417725,756.687439 1198.905396,766.245972 
z"/>
<path fill="#F8F8F8" opacity="1.000000" stroke="none" 
	d="
M956.785950,760.333435 
	C951.672485,760.332397 947.033386,760.332397 942.101929,760.332397 
	C942.988586,755.285156 945.846985,752.685608 950.369568,752.067932 
	C954.395386,751.518127 957.411682,753.352539 959.394104,756.888245 
	C960.765503,759.334167 960.314941,760.636536 956.785950,760.333435 
z"/>
<path fill="#F8F8F8" opacity="1.000000" stroke="none" 
	d="
M848.212280,766.504395 
	C846.024780,759.489685 848.867004,753.775940 855.060303,752.106506 
	C860.294128,750.695618 865.552124,753.991028 867.079895,759.639709 
	C868.697266,765.619629 865.615967,771.336426 859.753662,772.667725 
	C854.495728,773.861694 850.816162,771.424927 848.212280,766.504395 
z"/>
<path fill="#F8F8F8" opacity="1.000000" stroke="none" 
	d="
M1247.204102,771.478516 
	C1241.267822,773.803101 1236.910645,772.872131 1233.970093,768.952148 
	C1230.942627,764.916260 1230.991333,759.390930 1234.088257,755.561707 
	C1237.417969,751.444580 1243.008179,750.710327 1247.484619,753.802124 
	C1251.975220,756.903687 1253.398438,763.266968 1250.510864,767.960693 
	C1249.748413,769.200256 1248.526123,770.157043 1247.204102,771.478516 
z"/>
</svg>